Coordinates
version=1
nRows=9
nColumns=40
inDegrees=yes

Units are S.I. units (second, meters, Newtons, ...)
If the header above contains a line with 'inDegrees', this indicates whether rotational values are in degrees (yes) or radians (no).

endheader
time	pelvis_tilt	pelvis_list	pelvis_rotation	pelvis_tx	pelvis_ty	pelvis_tz	hip_flexion_r	hip_adduction_r	hip_rotation_r	knee_angle_r	knee_angle_r_beta	ankle_angle_r	subtalar_angle_r	mtp_angle_r	hip_flexion_l	hip_adduction_l	hip_rotation_l	knee_angle_l	knee_angle_l_beta	ankle_angle_l	subtalar_angle_l	mtp_angle_l	lumbar_extension	lumbar_bending	lumbar_rotation	arm_flex_r	arm_add_r	arm_rot_r	elbow_flex_r	pro_sup_r	wrist_flex_r	wrist_dev_r	arm_flex_l	arm_add_l	arm_rot_l	elbow_flex_l	pro_sup_l	wrist_flex_l	wrist_dev_l
     17.94500000000000028422	     30.48826024990319183416	    -11.23945561890768729540	    175.90598882569136662823	      0.34721607722569547416	      0.80404831056291581337	     -0.58928640439218793468	     77.69772912565781552985	    -10.28198452820182318135	      6.44658480008428647068	     57.21134170924488415721	      0.99852628230988360603	     12.80913073870630469742	      0.00000000000000000000	      0.00000000000000000000	     71.09256855400502672637	     -3.72167590627042610407	    -12.24216946647215742416	     55.22209459232259121109	      0.96380737048378506415	     16.48799701371194004196	      0.00000000000000000000	      0.00000000000000000000	    -46.81789992760119645254	     -7.19680708193486129431	     -6.30683466175907447848	     61.60963976632759653285	    -13.33222568765311777383	     44.74647574985691989014	      9.20445820642100542841	      9.45557828848560433244	      0.00000000000000000000	      0.00000000000000000000	     68.30797012972782056295	    -16.00433663074893075873	     44.19865714238836318373	     13.54435579988576243693	     85.65766977235341528285	      0.00000000000000000000	      0.00000000000000000000
     17.94999999999999928946	     30.40876202471665479266	    -11.17744606337433665999	    175.75445258955795679867	      0.34703221102109504947	      0.80563066012068240695	     -0.58940396525054661314	     77.35262895981291819680	    -10.17622739668126286006	      6.30832240574889624440	     56.78255766949317973058	      0.99104258903621411658	     12.62891124112829821513	      0.00000000000000000000	      0.00000000000000000000	     70.79798968432805850171	     -3.82924337969575567797	    -12.27841440140730711050	     54.89109672373001558299	      0.95803036785976103396	     16.34436651564559994654	      0.00000000000000000000	      0.00000000000000000000	    -46.82153164570618741891	     -7.23495796385894607283	     -6.15641935415931840225	     61.53592452584098282387	    -13.39229638005743971974	     44.77129814150195130651	      9.22031061320563516404	      9.50028400527823890798	      0.00000000000000000000	      0.00000000000000000000	     68.27781307525265219738	    -15.99101624883605232696	     44.34461105905349143086	     13.51925343973310589263	     85.81226242865689357586	      0.00000000000000000000	      0.00000000000000000000
     17.95499999999999829470	     30.40901224501522293053	    -11.12460804714734941001	    175.50877470860223183990	      0.34705053469318353221	      0.80698691793252586013	     -0.58966986277367383629	     77.10136570822554347160	     -9.90159112250836237479	      6.32875663529279020025	     56.33095059027847639754	      0.98316055857860273903	     12.39164821028106189260	      0.00000000000000000000	      0.00000000000000000000	     70.60744493250658138095	     -4.05262943361179406310	    -12.35805068683337815116	     54.59001841209418159906	      0.95277556001537011543	     16.22427436201991923781	      0.00000000000000000000	      0.00000000000000000000	    -46.71570650256121126631	     -7.35086876968000435539	     -5.91974783937342063922	     61.42858983292588703762	    -13.49962269154940308624	     45.04755693264252869312	      9.47950948445862096037	      8.19969013792307066524	      0.00000000000000000000	      0.00000000000000000000	     68.18023105263947059029	    -15.93393612338893916558	     44.18005714852022691730	     13.51733701797397557698	     86.03153629768067389705	      0.00000000000000000000	      0.00000000000000000000
     17.96000000000000085265	     30.32032692137205387439	    -11.07268053803500329479	    175.42514968323450830212	      0.34684794723079837020	      0.80857403953163875521	     -0.58958638851144573589	     76.74970697612133108123	     -9.87119192447319093731	      6.21824856973478645727	     55.91712706734644200424	      0.97593797558123651648	     12.22646669093377980175	      0.00000000000000000000	      0.00000000000000000000	     70.31018425284386808016	     -4.04819476269549660685	    -12.32468579628049454300	     54.22880788673575835901	      0.94647124705500718100	     16.07714806661973838686	      0.00000000000000000000	      0.00000000000000000000	    -46.72873698388092122968	     -7.33246625694546150243	     -5.84848153316836327775	     61.38280610363332101542	    -13.51249669513582674085	     44.94971600413152401643	      9.53400654491007948366	      7.92406503318595500929	      0.00000000000000000000	      0.00000000000000000000	     68.10518057596972596457	    -15.93572523036923982431	     44.24273166088934061690	     13.52890135264773618928	     85.96526753278020294147	      0.00000000000000000000	      0.00000000000000000000
     17.96499999999999985789	     30.23225059984453366724	    -11.04440856207543042444	    175.53399029218388704976	      0.34653664381834387020	      0.81022583447327978234	     -0.58904868559018264129	     76.41740551718690710459	    -10.07858232753297933471	      6.04814405317739733903	     55.55902059561140049482	      0.96968783857675999727	     12.06412755206073050829	      0.00000000000000000000	      0.00000000000000000000	     69.98346617385996637495	     -3.82310516938263766917	    -12.25474889961288482709	     53.78655277174994608913	      0.93875243916471873273	     15.89788596326047631635	      0.00000000000000000000	      0.00000000000000000000	    -46.75706863635637944299	     -7.18931168786209973121	     -5.91780074900614305733	     61.36852776944477483312	    -13.45264915431058483364	     44.44064814988840339538	      9.33753542397388969221	      8.88031302214058548827	      0.00000000000000000000	      0.00000000000000000000	     68.00766323347568231839	    -15.94100236217757604607	     44.32548939328363246659	     13.59183258447790976220	     85.68677025593213159027	      0.00000000000000000000	      0.00000000000000000000
     17.96999999999999886313	     30.10412253144678729200	    -11.13198546548258960343	    175.49146801101841219861	      0.34622211099901045728	      0.81190953291260015146	     -0.58882649378013851571	     76.08471305526309436118	    -10.14458679423921338980	      6.08624407891087493283	     55.19385979694578736598	      0.96331458034083294883	     11.92027777317301406868	      0.00000000000000000000	      0.00000000000000000000	     69.59064950877109367866	     -3.70656828521312275981	    -12.38210607702614574066	     53.34305604181450632950	      0.93101196100551719681	     15.73876063880721076771	      0.00000000000000000000	      0.00000000000000000000	    -46.81872032109703951619	     -7.25317385537576253540	     -5.99795239212482655944	     61.32657225976868176076	    -13.45165122771990873218	     44.36016920869950297401	      9.26038836516768526508	      9.65224499807331959289	      0.00000000000000000000	      0.00000000000000000000	     67.93854741136182440187	    -16.04088854362613503213	     44.67611607496339587442	     13.72909591600100043252	     85.36586192982723275691	      0.00000000000000000000	      0.00000000000000000000
     17.97500000000000142109	     30.13705365579610173654	    -10.98988971306305195696	    175.08965995853168351459	      0.34630879492745186843	      0.81310917736672994049	     -0.58946257059248807764	     75.81841050213762400745	     -9.67451977490649994706	      6.01691646833465387800	     54.66337037288992206641	      0.95405579324404965469	     11.66756208955424156670	      0.00000000000000000000	      0.00000000000000000000	     69.48619275298317177203	     -4.16021125497252608483	    -12.45050677029779784277	     53.17799602303592365615	      0.92813112021442722988	     15.62098828096528890796	      0.00000000000000000000	      0.00000000000000000000	    -46.64313751564968413277	     -7.41930473350358354878	     -5.56890716435546906382	     61.17867957743173690233	    -13.58422701874304827641	     44.72918920685975052720	      9.54727423993847423844	      8.11280807752573629443	      0.00000000000000000000	      0.00000000000000000000	     67.84308773904058398330	    -15.87795981779332876727	     44.17071497978999872203	     13.53737904801008795630	     85.98393160119574929467	      0.00000000000000000000	      0.00000000000000000000
     17.98000000000000042633	     30.09460680744266980469	    -10.96547240672582823606	    175.03539158601097369683	      0.34612266771714966795	      0.81456918695587421375	     -0.58925384615616627215	     75.54181930017506374497	     -9.68599082185337678652	      5.91191728545925876404	     54.27557528741216685830	      0.94728749217940999561	     11.45376355661023914934	      0.00000000000000000000	      0.00000000000000000000	     69.21694089054766152458	     -4.12819366566669199159	    -12.45842603229726641700	     52.77917631365041728486	      0.92117040316380316423	     15.49263105948624463792	      0.00000000000000000000	      0.00000000000000000000	    -46.59205451525057384288	     -7.40556700735768203003	     -5.51052304175794649410	     61.11331670070701704844	    -13.60592297374624770612	     44.66040250884928752839	      9.57418946912194002152	      7.90632881300887824239	      0.00000000000000000000	      0.00000000000000000000	     67.75747189037626583286	    -15.89476954552979037771	     44.39739465197019541165	     13.58907166464556581786	     85.94584720842217961945	      0.00000000000000000000	      0.00000000000000000000
     17.98499999999999943157	     30.01377250858552869772	    -11.07256397789630852913	    174.71014737465452526521	      0.34599182270343276091	      0.81603597783920944764	     -0.58967099607785522508	     75.24252929350727470137	     -9.40060871860160141011	      6.13286841133157079042	     53.78597395662335145516	      0.93874233693499931075	     11.23948638988105486192	      0.00000000000000000000	      0.00000000000000000000	     68.90753930891882816923	     -4.33502412377742452065	    -12.72887959127599799558	     52.47094774948137541060	      0.91579079987035882926	     15.33631831829922020916	      0.00000000000000000000	      0.00000000000000000000	    -46.53213974953133202916	     -7.71806108177807637105	     -5.36424483952428232669	     61.13495614722799587071	    -13.37576488611725444855	     44.31653396084654872311	      8.85854243326342505327	     10.03990448982628436170	      0.00000000000000000000	      0.00000000000000000000	     67.64775979335539091153	    -15.68084338410978517686	     44.38580076081726843995	     13.28912930069771469732	     83.09937885149848568744	      0.00000000000000000000	      0.00000000000000000000
